<svg xmlns="http://www.w3.org/2000/svg" xmlns:xlink="http://www.w3.org/1999/xlink" width="1920" zoomAndPan="magnify" viewBox="0 0 1440 809.999993" height="1080" preserveAspectRatio="xMidYMid meet" version="1.0"><defs><filter x="0%" y="0%" width="100%" height="100%" id="db2f16907b"><feColorMatrix values="0 0 0 0 1 0 0 0 0 1 0 0 0 0 1 0 0 0 1 0" color-interpolation-filters="sRGB"/></filter><mask id="452c19cca1"><g filter="url(#db2f16907b)"><rect x="-144" width="1728" fill="#000000" y="-80.999999" height="971.999992" fill-opacity="0.6"/></g></mask><clipPath id="3d247809e5"><path d="M 0 78 L 760 78 L 760 173 L 0 173 Z M 0 78 " clip-rule="nonzero"/></clipPath><clipPath id="787cbecaba"><path d="M -87.683594 904.601562 L -256.945312 205.550781 L 657.140625 -15.777344 L 826.402344 683.273438 Z M -87.683594 904.601562 " clip-rule="nonzero"/></clipPath><clipPath id="9916158472"><path d="M 657.171875 -16.109375 L 826.433594 682.941406 L -87.65625 904.269531 L -256.914062 205.21875 Z M 657.171875 -16.109375 " clip-rule="nonzero"/></clipPath><clipPath id="995a445ba4"><rect x="0" width="824" y="0" height="173"/></clipPath><mask id="8c0676e3ce"><g filter="url(#db2f16907b)"><rect x="-144" width="1728" fill="#000000" y="-80.999999" height="971.999992" fill-opacity="0.8"/></g></mask><clipPath id="113f4d092c"><path d="M 85 0 L 431 0 L 431 402 L 85 402 Z M 85 0 " clip-rule="nonzero"/></clipPath><clipPath id="cf18a23620"><path d="M 939.933594 257.113281 L 249.984375 460.308594 L -15.714844 -441.878906 L 674.234375 -645.074219 Z M 939.933594 257.113281 " clip-rule="nonzero"/></clipPath><clipPath id="bde145387b"><path d="M -16.046875 -441.890625 L 673.902344 -645.085938 L 939.601562 257.101562 L 249.648438 460.296875 Z M -16.046875 -441.890625 " clip-rule="nonzero"/></clipPath><clipPath id="b674d2b5df"><rect x="0" width="431" y="0" height="454"/></clipPath><mask id="b5acf0456b"><g filter="url(#db2f16907b)"><rect x="-144" width="1728" fill="#000000" y="-80.999999" height="971.999992" fill-opacity="0.6"/></g></mask><clipPath id="b0a92d79c4"><path d="M 38 6 L 552 6 L 552 711 L 38 711 Z M 38 6 " clip-rule="nonzero"/></clipPath><clipPath id="c878f236ec"><path d="M 582.335938 685.71875 L 44.824219 728.976562 L -11.734375 26.25 L 525.78125 -17.011719 Z M 582.335938 685.71875 " clip-rule="nonzero"/></clipPath><clipPath id="50d8280ed6"><path d="M -11.96875 26.066406 L 525.542969 -17.191406 L 582.097656 685.535156 L 44.585938 728.796875 Z M -11.96875 26.066406 " clip-rule="nonzero"/></clipPath><clipPath id="53d6dbbd25"><rect x="0" width="578" y="0" height="726"/></clipPath><mask id="58adfec284"><g filter="url(#db2f16907b)"><rect x="-144" width="1728" fill="#000000" y="-80.999999" height="971.999992" fill-opacity="0.8"/></g></mask><clipPath id="7af77d6c2c"><path d="M 0 0 L 95 0 L 95 512 L 0 512 Z M 0 0 " clip-rule="nonzero"/></clipPath><clipPath id="1a4d77531e"><path d="M -73.429688 -366.300781 L 158.8125 314.421875 L -731.3125 618.105469 L -963.554688 -62.617188 Z M -73.429688 -366.300781 " clip-rule="nonzero"/></clipPath><clipPath id="8cf7aa9b61"><path d="M -731.308594 618.4375 L -963.550781 -62.285156 L -73.429688 -365.964844 L 158.8125 314.757812 Z M -731.308594 618.4375 " clip-rule="nonzero"/></clipPath><clipPath id="fee7017660"><rect x="0" width="151" y="0" height="602"/></clipPath><mask id="3bd4bd064b"><g filter="url(#db2f16907b)"><rect x="-144" width="1728" fill="#000000" y="-80.999999" height="971.999992" fill-opacity="0.298"/></g></mask><clipPath id="b184186656"><path d="M 0 0 L 705 0 L 705 798 L 0 798 Z M 0 0 " clip-rule="nonzero"/></clipPath><clipPath id="bfeaa33d1a"><path d="M 574.792969 925.320312 L -118.222656 732.84375 L 133.460938 -173.355469 L 826.480469 19.121094 Z M 574.792969 925.320312 " clip-rule="nonzero"/></clipPath><clipPath id="50b404ff51"><path d="M 133.1875 -173.542969 L 826.203125 18.9375 L 574.515625 925.132812 L -118.5 732.65625 Z M 133.1875 -173.542969 " clip-rule="nonzero"/></clipPath><clipPath id="582cbda5bb"><rect x="0" width="820" y="0" height="810"/></clipPath><mask id="aad0ba3111"><g filter="url(#db2f16907b)"><rect x="-144" width="1728" fill="#000000" y="-80.999999" height="971.999992" fill-opacity="0.298"/></g></mask><clipPath id="30b26707ca"><path d="M 72 108 L 710 108 L 710 419 L 72 419 Z M 72 108 " clip-rule="nonzero"/></clipPath><clipPath id="60301fa312"><path d="M 335.382812 1067.628906 L -9.847656 436.648438 L 815.230469 -14.78125 L 1160.460938 616.199219 Z M 335.382812 1067.628906 " clip-rule="nonzero"/></clipPath><clipPath id="4458eb8188"><path d="M 815.171875 -15.109375 L 1160.402344 615.871094 L 335.324219 1067.300781 L -9.90625 436.320312 Z M 815.171875 -15.109375 " clip-rule="nonzero"/></clipPath><clipPath id="0ffd58f25f"><rect x="0" width="710" y="0" height="419"/></clipPath></defs><rect x="-144" width="1728" fill="#ffffff" y="-80.999999" height="971.999992" fill-opacity="1"/><rect x="-144" width="1728" fill="#ffffff" y="-80.999999" height="971.999992" fill-opacity="1"/><g mask="url(#452c19cca1)"><g transform="matrix(1, 0, 0, 1, 0, 637)"><g clip-path="url(#995a445ba4)"><g clip-path="url(#3d247809e5)"><g clip-path="url(#787cbecaba)"><g clip-path="url(#9916158472)"><path fill="#81b214" d="M 327.257812 149.035156 C 253.964844 201.277344 52.675781 171.261719 -42.8125 174.855469 C -147.976562 178.839844 -227.285156 276.148438 -199.433594 409.992188 C -156.945312 617.742188 -33.023438 527.207031 70.910156 625.707031 C 111.445312 664.054688 104.785156 733.359375 141.226562 765.539062 C 196.109375 814.734375 275.367188 805.957031 325.316406 797.117188 C 434.582031 777.820312 515.023438 693.257812 614.921875 654.097656 C 732.824219 608.628906 786.976562 571.433594 746.320312 384.714844 C 661.554688 2.355469 470.132812 48.054688 327.257812 149.035156 Z M 327.257812 149.035156 " fill-opacity="1" fill-rule="nonzero"/></g></g></g></g></g></g><g mask="url(#8c0676e3ce)"><g transform="matrix(1, 0, 0, 1, 1009, 0.000000000000039746)"><g clip-path="url(#b674d2b5df)"><g clip-path="url(#113f4d092c)"><g clip-path="url(#cf18a23620)"><g clip-path="url(#bde145387b)"><path fill="#55812d" d="M 165.007812 -120.4375 C 220.769531 -49.78125 200.617188 152.730469 208.871094 247.933594 C 217.984375 352.773438 319.046875 427.238281 451.371094 392.882812 C 656.800781 340.300781 560.320312 220.949219 653.628906 112.332031 C 689.953125 69.96875 759.496094 73.234375 789.859375 35.269531 C 836.316406 -21.949219 823.679688 -100.6875 812.414062 -150.140625 C 787.800781 -258.335938 699.410156 -334.550781 655.421875 -432.421875 C 604.25 -547.964844 564.457031 -600.230469 379.945312 -550.511719 C 2.179688 -447.171875 57.171875 -258.210938 165.007812 -120.4375 Z M 165.007812 -120.4375 " fill-opacity="1" fill-rule="nonzero"/></g></g></g></g></g></g><g mask="url(#b5acf0456b)"><g transform="matrix(1, 0, 0, 1, 675, 0.000000000000039746)"><g clip-path="url(#53d6dbbd25)"><g clip-path="url(#b0a92d79c4)"><g clip-path="url(#c878f236ec)"><g clip-path="url(#50d8280ed6)"><path fill="#206a5d" d="M 71.578125 289.707031 C 101.65625 350.101562 55.792969 495.601562 47.242188 566.71875 C 37.84375 645.042969 100.585938 715.179688 202.964844 710.269531 C 361.792969 703.199219 309.304688 600.828125 394.445312 535.445312 C 427.601562 509.933594 478.136719 522.996094 506.246094 499.796875 C 549.117188 464.941406 551.925781 405.230469 551.246094 367.214844 C 549.785156 284.054688 496.613281 214.574219 479.347656 136.019531 C 459.523438 43.390625 438.339844 -1.0625 295.304688 7.117188 C 2.21875 24.996094 13.578125 172.074219 71.578125 289.707031 Z M 71.578125 289.707031 " fill-opacity="1" fill-rule="nonzero"/></g></g></g></g></g></g><g mask="url(#58adfec284)"><g transform="matrix(1, 0, 0, 1, 0, 0.000000000000039746)"><g clip-path="url(#fee7017660)"><g clip-path="url(#7af77d6c2c)"><g clip-path="url(#1a4d77531e)"><g clip-path="url(#8cf7aa9b61)"><path fill="#55812d" d="M -417.8125 423.925781 C -349.582031 365.222656 -146.398438 376.777344 -51.632812 364.496094 C 52.726562 350.949219 122.84375 246.820312 82.914062 116.074219 C 21.675781 -86.945312 -93.480469 14.503906 -205.953125 -74.117188 C -249.816406 -108.613281 -249.5 -178.234375 -288.71875 -206.960938 C -347.855469 -250.953125 -425.984375 -234.992188 -474.917969 -221.636719 C -581.972656 -192.46875 -654.375 -100.925781 -750.292969 -52.828125 C -863.5625 3.191406 -914.097656 45.164062 -856.605469 227.402344 C -737.355469 600.449219 -550.894531 537.503906 -417.8125 423.925781 Z M -417.8125 423.925781 " fill-opacity="1" fill-rule="nonzero"/></g></g></g></g></g></g><g mask="url(#3bd4bd064b)"><g transform="matrix(1, 0, 0, 1, 0, 0.000000000000039746)"><g clip-path="url(#582cbda5bb)"><g clip-path="url(#b184186656)"><g clip-path="url(#bfeaa33d1a)"><g clip-path="url(#50b404ff51)"><path fill="#55812d" d="M 116.824219 195.035156 C 126.773438 284.488281 2.558594 445.699219 -40.789062 530.859375 C -88.503906 624.65625 -42.117188 741.304688 88.351562 782.136719 C 290.503906 846.164062 271.753906 693.847656 408.390625 651.015625 C 461.621094 634.277344 518.914062 673.832031 564.765625 657.667969 C 634.457031 633.679688 665.375 560.175781 681.96875 512.242188 C 718.308594 407.40625 683.605469 295.972656 698.035156 189.644531 C 715.71875 64.519531 709.59375 -0.882812 526.707031 -56.277344 C 151.449219 -168.382812 98.175781 21.070312 116.824219 195.035156 Z M 116.824219 195.035156 " fill-opacity="1" fill-rule="nonzero"/></g></g></g></g></g></g><g mask="url(#aad0ba3111)"><g transform="matrix(1, 0, 0, 1, 730, 391)"><g clip-path="url(#0ffd58f25f)"><g clip-path="url(#30b26707ca)"><g clip-path="url(#60301fa312)"><g clip-path="url(#4458eb8188)"><path fill="#55812d" d="M 539.558594 230.152344 C 482.371094 299.65625 280.203125 323.019531 188.933594 351.324219 C 88.429688 382.519531 37.152344 497.101562 98.851562 619.097656 C 193.90625 808.652344 290.019531 689.003906 415.992188 757.085938 C 465.105469 783.574219 476.699219 852.222656 520.253906 873.820312 C 586.042969 907.050781 660.292969 877.960938 706.21875 856.4375 C 806.707031 809.390625 862.390625 706.816406 948.667969 643.027344 C 1050.691406 568.457031 1093.304688 518.460938 1005.496094 348.742188 C 824.207031 1.582031 651.257812 95.488281 539.558594 230.152344 Z M 539.558594 230.152344 " fill-opacity="1" fill-rule="nonzero"/></g></g></g></g></g></g></svg>