<svg xmlns="http://www.w3.org/2000/svg" xmlns:xlink="http://www.w3.org/1999/xlink" width="1920" zoomAndPan="magnify" viewBox="0 0 1440 400" height="500" preserveAspectRatio="xMidYMid meet" version="1.0"><defs><g/><clipPath id="d62c0e8415"><path d="M 806.589844 131.539062 L 947.679688 131.539062 L 947.679688 215.429688 L 806.589844 215.429688 Z M 806.589844 131.539062 " clip-rule="nonzero"/></clipPath><clipPath id="d3c71b0ea0"><path d="M 892.390625 153.050781 L 934.335938 153.050781 L 934.335938 195 L 892.390625 195 Z M 892.390625 153.050781 " clip-rule="nonzero"/></clipPath></defs><rect x="-144" width="1728" fill="#ffffff" y="-80.999999" height="971.999992" fill-opacity="1"/><rect x="-144" width="1728" fill="#ffffff" y="-80.999999" height="971.999992" fill-opacity="1"/><g fill="#206a5d" fill-opacity="1"><g transform="translate(83.560436, 300.623386)"><g><path d="M 84.984375 1.765625 C 69.867188 1.765625 55.40625 -0.414062 41.59375 -4.78125 C 27.789062 -9.144531 16.992188 -14.632812 9.203125 -21.25 L 20.53125 -41.078125 C 28.320312 -34.929688 38.117188 -29.910156 49.921875 -26.015625 C 61.722656 -22.128906 74 -20.1875 86.75 -20.1875 C 103.75 -20.1875 116.316406 -22.835938 124.453125 -28.140625 C 132.597656 -33.453125 136.671875 -40.953125 136.671875 -50.640625 C 136.671875 -57.484375 134.425781 -62.851562 129.9375 -66.75 C 125.457031 -70.644531 119.796875 -73.59375 112.953125 -75.59375 C 106.109375 -77.601562 97.019531 -79.550781 85.6875 -81.4375 C 70.582031 -84.269531 58.425781 -87.160156 49.21875 -90.109375 C 40.007812 -93.054688 32.160156 -98.070312 25.671875 -105.15625 C 19.179688 -112.238281 15.9375 -122.035156 15.9375 -134.546875 C 15.9375 -150.128906 22.425781 -162.875 35.40625 -172.78125 C 48.382812 -182.695312 66.441406 -187.65625 89.578125 -187.65625 C 101.617188 -187.65625 113.65625 -186.0625 125.6875 -182.875 C 137.726562 -179.6875 147.644531 -175.5 155.4375 -170.3125 L 144.46875 -150.125 C 129.125 -160.75 110.828125 -166.0625 89.578125 -166.0625 C 73.523438 -166.0625 61.425781 -163.226562 53.28125 -157.5625 C 45.144531 -151.894531 41.078125 -144.460938 41.078125 -135.265625 C 41.078125 -128.179688 43.375 -122.515625 47.96875 -118.265625 C 52.570312 -114.015625 58.296875 -110.882812 65.140625 -108.875 C 71.992188 -106.875 81.441406 -104.8125 93.484375 -102.6875 C 108.347656 -99.851562 120.265625 -97.019531 129.234375 -94.1875 C 138.203125 -91.351562 145.875 -86.515625 152.25 -79.671875 C 158.625 -72.828125 161.8125 -63.382812 161.8125 -51.34375 C 161.8125 -35.050781 155.023438 -22.125 141.453125 -12.5625 C 127.878906 -3.007812 109.054688 1.765625 84.984375 1.765625 Z M 84.984375 1.765625 "/></g></g></g><g fill="#206a5d" fill-opacity="1"><g transform="translate(255.284658, 300.623386)"><g><path d="M 191.5625 -186.25 L 98.4375 22.3125 C 90.882812 39.78125 82.148438 52.171875 72.234375 59.484375 C 62.316406 66.804688 50.394531 70.46875 36.46875 70.46875 C 27.5 70.46875 19.117188 69.050781 11.328125 66.21875 C 3.535156 63.382812 -3.191406 59.132812 -8.859375 53.46875 L 2.828125 34.703125 C 12.273438 44.140625 23.609375 48.859375 36.828125 48.859375 C 45.328125 48.859375 52.582031 46.5 58.59375 41.78125 C 64.613281 37.0625 70.222656 29.035156 75.421875 17.703125 L 83.5625 -0.359375 L 0.359375 -186.25 L 26.5625 -186.25 L 96.65625 -27.96875 L 166.765625 -186.25 Z M 191.5625 -186.25 "/></g></g></g><g fill="#81b214" fill-opacity="1"><g transform="translate(445.764317, 300.623386)"><g><path d="M 86.046875 2.125 C 70.703125 2.125 55.945312 0.0625 41.78125 -4.0625 C 27.613281 -8.195312 16.519531 -13.453125 8.5 -19.828125 L 22.65625 -46.734375 C 30.914062 -40.835938 40.945312 -36.117188 52.75 -32.578125 C 64.5625 -29.035156 76.484375 -27.265625 88.515625 -27.265625 C 118.265625 -27.265625 133.140625 -35.757812 133.140625 -52.75 C 133.140625 -58.414062 131.128906 -62.898438 127.109375 -66.203125 C 123.097656 -69.515625 118.082031 -71.9375 112.0625 -73.46875 C 106.039062 -75 97.484375 -76.710938 86.390625 -78.609375 C 71.285156 -80.960938 58.953125 -83.675781 49.390625 -86.75 C 39.828125 -89.820312 31.625 -95.015625 24.78125 -102.328125 C 17.9375 -109.648438 14.515625 -119.921875 14.515625 -133.140625 C 14.515625 -150.128906 21.59375 -163.757812 35.75 -174.03125 C 49.914062 -184.300781 68.921875 -189.4375 92.765625 -189.4375 C 105.273438 -189.4375 117.785156 -187.898438 130.296875 -184.828125 C 142.804688 -181.753906 153.078125 -177.625 161.109375 -172.4375 L 146.59375 -145.53125 C 131.25 -155.4375 113.191406 -160.390625 92.421875 -160.390625 C 78.015625 -160.390625 67.035156 -158.03125 59.484375 -153.3125 C 51.929688 -148.59375 48.15625 -142.335938 48.15625 -134.546875 C 48.15625 -128.410156 50.28125 -123.570312 54.53125 -120.03125 C 58.78125 -116.488281 64.03125 -113.890625 70.28125 -112.234375 C 76.539062 -110.585938 85.332031 -108.703125 96.65625 -106.578125 C 111.769531 -103.984375 123.988281 -101.207031 133.3125 -98.25 C 142.632812 -95.300781 150.597656 -90.285156 157.203125 -83.203125 C 163.816406 -76.128906 167.125 -66.21875 167.125 -53.46875 C 167.125 -36.46875 159.863281 -22.953125 145.34375 -12.921875 C 130.832031 -2.890625 111.066406 2.125 86.046875 2.125 Z M 86.046875 2.125 "/></g></g></g><g fill="#81b214" fill-opacity="1"><g transform="translate(621.737365, 300.623386)"><g><path d="M 137.734375 -10.96875 C 132.773438 -6.726562 126.632812 -3.484375 119.3125 -1.234375 C 112 1.003906 104.445312 2.125 96.65625 2.125 C 77.78125 2.125 63.144531 -2.945312 52.75 -13.09375 C 42.363281 -23.25 37.171875 -37.769531 37.171875 -56.65625 L 37.171875 -159.6875 L 5.3125 -159.6875 L 5.3125 -187.65625 L 37.171875 -187.65625 L 37.171875 -228.734375 L 71.171875 -228.734375 L 71.171875 -187.65625 L 124.984375 -187.65625 L 124.984375 -159.6875 L 71.171875 -159.6875 L 71.171875 -58.0625 C 71.171875 -47.914062 73.707031 -40.128906 78.78125 -34.703125 C 83.851562 -29.273438 91.113281 -26.5625 100.5625 -26.5625 C 110.945312 -26.5625 119.796875 -29.507812 127.109375 -35.40625 Z M 137.734375 -10.96875 "/></g></g></g><g fill="#81b214" fill-opacity="1"><g transform="translate(766.906276, 300.623386)"><g><path d="M 201.828125 -92.765625 C 201.828125 -90.171875 201.585938 -86.75 201.109375 -82.5 L 48.859375 -82.5 C 50.984375 -65.976562 58.242188 -52.703125 70.640625 -42.671875 C 83.035156 -32.640625 98.4375 -27.625 116.84375 -27.625 C 139.269531 -27.625 157.328125 -35.175781 171.015625 -50.28125 L 189.78125 -28.328125 C 181.28125 -18.410156 170.71875 -10.851562 158.09375 -5.65625 C 145.46875 -0.46875 131.363281 2.125 115.78125 2.125 C 95.957031 2.125 78.375 -1.945312 63.03125 -10.09375 C 47.6875 -18.238281 35.820312 -29.628906 27.4375 -44.265625 C 19.0625 -58.898438 14.875 -75.421875 14.875 -93.828125 C 14.875 -112.003906 18.941406 -128.410156 27.078125 -143.046875 C 35.222656 -157.679688 46.4375 -169.070312 60.71875 -177.21875 C 75 -185.363281 91.113281 -189.4375 109.0625 -189.4375 C 127 -189.4375 142.988281 -185.363281 157.03125 -177.21875 C 171.070312 -169.070312 182.046875 -157.679688 189.953125 -143.046875 C 197.867188 -128.410156 201.828125 -111.648438 201.828125 -92.765625 Z M 109.0625 -160.75 C 92.769531 -160.75 79.132812 -155.789062 68.15625 -145.875 C 57.1875 -135.96875 50.753906 -122.988281 48.859375 -106.9375 L 169.25 -106.9375 C 167.363281 -122.75 160.929688 -135.671875 149.953125 -145.703125 C 138.972656 -155.734375 125.34375 -160.75 109.0625 -160.75 Z M 109.0625 -160.75 "/></g></g></g><g fill="#81b214" fill-opacity="1"><g transform="translate(982.181168, 300.623386)"><g><path d="M 266.96875 -189.4375 C 290.570312 -189.4375 309.28125 -182.585938 323.09375 -168.890625 C 336.90625 -155.203125 343.8125 -134.90625 343.8125 -108 L 343.8125 0 L 309.8125 0 L 309.8125 -104.09375 C 309.8125 -122.269531 305.617188 -135.960938 297.234375 -145.171875 C 288.859375 -154.378906 276.882812 -158.984375 261.3125 -158.984375 C 244.082031 -158.984375 230.390625 -153.613281 220.234375 -142.875 C 210.085938 -132.132812 205.015625 -116.726562 205.015625 -96.65625 L 205.015625 0 L 171.015625 0 L 171.015625 -104.09375 C 171.015625 -122.269531 166.820312 -135.960938 158.4375 -145.171875 C 150.0625 -154.378906 138.085938 -158.984375 122.515625 -158.984375 C 105.273438 -158.984375 91.582031 -153.613281 81.4375 -142.875 C 71.289062 -132.132812 66.21875 -116.726562 66.21875 -96.65625 L 66.21875 0 L 32.21875 0 L 32.21875 -187.65625 L 64.796875 -187.65625 L 64.796875 -159.6875 C 71.640625 -169.363281 80.609375 -176.738281 91.703125 -181.8125 C 102.796875 -186.894531 115.425781 -189.4375 129.59375 -189.4375 C 144.226562 -189.4375 157.207031 -186.484375 168.53125 -180.578125 C 179.863281 -174.679688 188.601562 -166.066406 194.75 -154.734375 C 201.820312 -165.585938 211.671875 -174.082031 224.296875 -180.21875 C 236.929688 -186.363281 251.15625 -189.4375 266.96875 -189.4375 Z M 266.96875 -189.4375 "/></g></g></g><g clip-path="url(#d62c0e8415)"><path fill="#81b214" d="M 877.132812 131.542969 C 838.171875 131.542969 806.589844 150.320312 806.589844 173.484375 C 806.589844 196.648438 838.171875 215.429688 877.132812 215.429688 C 916.097656 215.429688 947.679688 196.648438 947.679688 173.484375 C 947.679688 150.320312 916.097656 131.542969 877.132812 131.542969 " fill-opacity="1" fill-rule="nonzero"/></g><g clip-path="url(#d3c71b0ea0)"><path fill="#ffffff" d="M 913.363281 153.066406 C 901.78125 153.066406 892.390625 162.449219 892.390625 174.023438 C 892.390625 185.601562 901.78125 194.984375 913.363281 194.984375 C 924.945312 194.984375 934.335938 185.601562 934.335938 174.023438 C 934.335938 162.449219 924.945312 153.066406 913.363281 153.066406 " fill-opacity="1" fill-rule="nonzero"/></g></svg>