<svg xmlns="http://www.w3.org/2000/svg" xmlns:xlink="http://www.w3.org/1999/xlink" width="1920" zoomAndPan="magnify" viewBox="0 0 1440 809.999993" height="1080" preserveAspectRatio="xMidYMid meet" version="1.0"><defs><g/><clipPath id="204fe49ec0"><path d="M 208.066406 230.980469 L 559.351562 230.980469 L 559.351562 442.125 L 208.066406 442.125 Z M 208.066406 230.980469 " clip-rule="nonzero"/></clipPath><clipPath id="c66ffd1945"><path d="M 421.832031 284.578125 L 528.339844 284.578125 L 528.339844 389.214844 L 421.832031 389.214844 Z M 421.832031 284.578125 " clip-rule="nonzero"/></clipPath><clipPath id="cdae8a5f54"><path d="M 0 160.363281 L 17.035156 160.363281 L 17.035156 371.511719 L 0 371.511719 Z M 0 160.363281 " clip-rule="nonzero"/></clipPath><clipPath id="104184ad84"><path d="M 51.453125 0 L 192.453125 0 L 192.453125 810 L 51.453125 810 Z M 51.453125 0 " clip-rule="nonzero"/></clipPath></defs><rect x="-144" width="1728" fill="#ffffff" y="-80.999999" height="971.999992" fill-opacity="1"/><rect x="-144" width="1728" fill="#ffffff" y="-80.999999" height="971.999992" fill-opacity="1"/><rect x="-144" width="1728" fill="#ffffff" y="-80.999999" height="971.999992" fill-opacity="1"/><g fill="#81b214" fill-opacity="1"><g transform="translate(114.204058, 652.234496)"><g><path d="M 502.828125 -231.125 C 502.828125 -224.65625 502.238281 -216.128906 501.0625 -205.546875 L 121.734375 -205.546875 C 127.023438 -164.378906 145.109375 -131.296875 175.984375 -106.296875 C 206.859375 -81.304688 245.234375 -68.8125 291.109375 -68.8125 C 346.984375 -68.8125 391.972656 -87.628906 426.078125 -125.265625 L 472.828125 -70.578125 C 451.660156 -45.867188 425.34375 -27.046875 393.875 -14.109375 C 362.414062 -1.171875 327.28125 5.296875 288.46875 5.296875 C 239.0625 5.296875 195.242188 -4.847656 157.015625 -25.140625 C 118.796875 -45.429688 89.242188 -73.804688 68.359375 -110.265625 C 47.484375 -146.734375 37.046875 -187.898438 37.046875 -233.765625 C 37.046875 -279.054688 47.191406 -319.929688 67.484375 -356.390625 C 87.773438 -392.847656 115.707031 -421.222656 151.28125 -441.515625 C 186.863281 -461.804688 227.003906 -471.953125 271.703125 -471.953125 C 316.398438 -471.953125 356.242188 -461.804688 391.234375 -441.515625 C 426.222656 -421.222656 453.566406 -392.847656 473.265625 -356.390625 C 492.972656 -319.929688 502.828125 -278.175781 502.828125 -231.125 Z M 271.703125 -400.5 C 231.117188 -400.5 197.15625 -388.144531 169.8125 -363.4375 C 142.46875 -338.738281 126.441406 -306.394531 121.734375 -266.40625 L 421.671875 -266.40625 C 416.960938 -305.8125 400.9375 -338.007812 373.59375 -363 C 346.25 -388 312.285156 -400.5 271.703125 -400.5 Z M 271.703125 -400.5 "/></g></g></g><g clip-path="url(#204fe49ec0)"><path fill="#81b214" d="M 383.710938 230.980469 C 286.71875 230.980469 208.089844 278.246094 208.089844 336.550781 C 208.089844 394.855469 286.71875 442.125 383.710938 442.125 C 480.703125 442.125 559.332031 394.855469 559.332031 336.550781 C 559.332031 278.246094 480.703125 230.980469 383.710938 230.980469 " fill-opacity="1" fill-rule="nonzero"/></g><g clip-path="url(#c66ffd1945)"><path fill="#ffffff" d="M 475.085938 284.578125 C 445.675781 284.578125 421.835938 308 421.835938 336.898438 C 421.835938 365.792969 445.675781 389.214844 475.085938 389.214844 C 504.496094 389.214844 528.335938 365.792969 528.335938 336.898438 C 528.335938 308 504.496094 284.578125 475.085938 284.578125 " fill-opacity="1" fill-rule="nonzero"/></g><g fill="#81b214" fill-opacity="1"><g transform="translate(110.899273, -49.745919)"><g><path d="M -502.828125 231.125 C -502.828125 224.65625 -502.238281 216.128906 -501.0625 205.546875 L -121.734375 205.546875 C -127.023438 164.378906 -145.109375 131.296875 -175.984375 106.296875 C -206.859375 81.304688 -245.234375 68.8125 -291.109375 68.8125 C -346.984375 68.8125 -391.972656 87.628906 -426.078125 125.265625 L -472.828125 70.578125 C -451.660156 45.867188 -425.34375 27.046875 -393.875 14.109375 C -362.414062 1.171875 -327.28125 -5.296875 -288.46875 -5.296875 C -239.0625 -5.296875 -195.242188 4.847656 -157.015625 25.140625 C -118.796875 45.429688 -89.242188 73.804688 -68.359375 110.265625 C -47.484375 146.734375 -37.046875 187.898438 -37.046875 233.765625 C -37.046875 279.054688 -47.191406 319.929688 -67.484375 356.390625 C -87.773438 392.847656 -115.707031 421.222656 -151.28125 441.515625 C -186.863281 461.804688 -227.003906 471.953125 -271.703125 471.953125 C -316.398438 471.953125 -356.242188 461.804688 -391.234375 441.515625 C -426.222656 421.222656 -453.566406 392.847656 -473.265625 356.390625 C -492.972656 319.929688 -502.828125 278.175781 -502.828125 231.125 Z M -271.703125 400.5 C -231.117188 400.5 -197.15625 388.144531 -169.8125 363.4375 C -142.46875 338.738281 -126.441406 306.394531 -121.734375 266.40625 L -421.671875 266.40625 C -416.960938 305.8125 -400.9375 338.007812 -373.59375 363 C -346.25 388 -312.285156 400.5 -271.703125 400.5 Z M -271.703125 400.5 "/></g></g></g><g clip-path="url(#cdae8a5f54)"><path fill="#81b214" d="M -158.609375 371.511719 C -61.613281 371.511719 17.011719 324.242188 17.011719 265.9375 C 17.011719 207.632812 -61.613281 160.363281 -158.609375 160.363281 C -255.601562 160.363281 -334.226562 207.632812 -334.226562 265.9375 C -334.226562 324.242188 -255.601562 371.511719 -158.609375 371.511719 " fill-opacity="1" fill-rule="nonzero"/></g><g clip-path="url(#104184ad84)"><path fill="#206a5d" d="M 181.367188 885.46875 L 62.539062 885.46875 C 56.429688 885.46875 51.453125 880.488281 51.453125 874.375 L 51.453125 -358.925781 C 51.453125 -365.039062 56.429688 -370.019531 62.539062 -370.019531 L 181.367188 -370.019531 C 187.476562 -370.019531 192.453125 -365.039062 192.453125 -358.925781 L 192.453125 874.375 C 192.453125 880.488281 187.476562 885.46875 181.367188 885.46875 " fill-opacity="1" fill-rule="nonzero"/></g><g fill="#000000" fill-opacity="1"><g transform="translate(719.99997, 378.750001)"><g><path d="M 43.578125 -62.4375 C 49.390625 -62.4375 54.648438 -61.117188 59.359375 -58.484375 C 64.078125 -55.859375 67.769531 -52.148438 70.4375 -47.359375 C 73.113281 -42.566406 74.453125 -37.109375 74.453125 -30.984375 C 74.453125 -24.773438 73.113281 -19.273438 70.4375 -14.484375 C 67.769531 -9.691406 64.097656 -5.976562 59.421875 -3.34375 C 54.753906 -0.71875 49.472656 0.59375 43.578125 0.59375 C 38.554688 0.59375 34.019531 -0.445312 29.96875 -2.53125 C 25.925781 -4.613281 22.613281 -7.65625 20.03125 -11.65625 L 20.03125 22.859375 L 11.65625 22.859375 L 11.65625 -61.96875 L 19.671875 -61.96875 L 19.671875 -49.703125 C 22.179688 -53.785156 25.5 -56.925781 29.625 -59.125 C 33.75 -61.332031 38.398438 -62.4375 43.578125 -62.4375 Z M 43 -6.828125 C 47.3125 -6.828125 51.234375 -7.828125 54.765625 -9.828125 C 58.304688 -11.835938 61.078125 -14.6875 63.078125 -18.375 C 65.078125 -22.0625 66.078125 -26.265625 66.078125 -30.984375 C 66.078125 -35.691406 65.078125 -39.867188 63.078125 -43.515625 C 61.078125 -47.171875 58.304688 -50.019531 54.765625 -52.0625 C 51.234375 -54.101562 47.3125 -55.125 43 -55.125 C 38.601562 -55.125 34.65625 -54.101562 31.15625 -52.0625 C 27.664062 -50.019531 24.914062 -47.171875 22.90625 -43.515625 C 20.90625 -39.867188 19.90625 -35.691406 19.90625 -30.984375 C 19.90625 -26.265625 20.90625 -22.0625 22.90625 -18.375 C 24.914062 -14.6875 27.664062 -11.835938 31.15625 -9.828125 C 34.65625 -7.828125 38.601562 -6.828125 43 -6.828125 Z M 43 -6.828125 "/></g></g></g><g fill="#000000" fill-opacity="1"><g transform="translate(848.154519, 378.750001)"><g><path d="M 11.65625 -87.40625 L 20.03125 -87.40625 L 20.03125 0 L 11.65625 0 Z M 11.65625 -87.40625 "/></g></g></g><g fill="#000000" fill-opacity="1"><g transform="translate(928.13496, 378.750001)"><g><path d="M 33.34375 -62.4375 C 41.425781 -62.4375 47.625 -60.410156 51.9375 -56.359375 C 56.257812 -52.316406 58.421875 -46.332031 58.421875 -38.40625 L 58.421875 0 L 50.421875 0 L 50.421875 -9.65625 C 48.535156 -6.4375 45.765625 -3.921875 42.109375 -2.109375 C 38.460938 -0.304688 34.125 0.59375 29.09375 0.59375 C 22.1875 0.59375 16.691406 -1.054688 12.609375 -4.359375 C 8.523438 -7.660156 6.484375 -12.019531 6.484375 -17.4375 C 6.484375 -22.695312 8.382812 -26.9375 12.1875 -30.15625 C 16 -33.375 22.066406 -34.984375 30.390625 -34.984375 L 50.0625 -34.984375 L 50.0625 -38.75 C 50.0625 -44.09375 48.566406 -48.15625 45.578125 -50.9375 C 42.597656 -53.726562 38.242188 -55.125 32.515625 -55.125 C 28.585938 -55.125 24.816406 -54.472656 21.203125 -53.171875 C 17.585938 -51.878906 14.484375 -50.097656 11.890625 -47.828125 L 8.125 -54.0625 C 11.269531 -56.738281 15.039062 -58.800781 19.4375 -60.25 C 23.832031 -61.707031 28.46875 -62.4375 33.34375 -62.4375 Z M 30.390625 -6 C 35.097656 -6 39.140625 -7.078125 42.515625 -9.234375 C 45.898438 -11.398438 48.414062 -14.523438 50.0625 -18.609375 L 50.0625 -28.75 L 30.625 -28.75 C 20.019531 -28.75 14.71875 -25.054688 14.71875 -17.671875 C 14.71875 -14.054688 16.09375 -11.207031 18.84375 -9.125 C 21.59375 -7.039062 25.441406 -6 30.390625 -6 Z M 30.390625 -6 "/></g></g></g><g fill="#000000" fill-opacity="1"><g transform="translate(1045.924413, 378.750001)"><g><path d="M 43.234375 -62.4375 C 51.003906 -62.4375 57.1875 -60.175781 61.78125 -55.65625 C 66.375 -51.144531 68.671875 -44.566406 68.671875 -35.921875 L 68.671875 0 L 60.3125 0 L 60.3125 -35.109375 C 60.3125 -41.546875 58.703125 -46.453125 55.484375 -49.828125 C 52.265625 -53.203125 47.671875 -54.890625 41.703125 -54.890625 C 35.023438 -54.890625 29.742188 -52.90625 25.859375 -48.9375 C 21.972656 -44.976562 20.03125 -39.503906 20.03125 -32.515625 L 20.03125 0 L 11.65625 0 L 11.65625 -61.96875 L 19.671875 -61.96875 L 19.671875 -50.53125 C 21.953125 -54.300781 25.113281 -57.226562 29.15625 -59.3125 C 33.195312 -61.394531 37.890625 -62.4375 43.234375 -62.4375 Z M 43.234375 -62.4375 "/></g></g></g><g fill="#000000" fill-opacity="1"><g transform="translate(1173.961159, 378.750001)"><g><path d="M 44.296875 -3.765625 C 42.722656 -2.359375 40.773438 -1.28125 38.453125 -0.53125 C 36.140625 0.21875 33.726562 0.59375 31.21875 0.59375 C 25.40625 0.59375 20.925781 -0.972656 17.78125 -4.109375 C 14.644531 -7.253906 13.078125 -11.695312 13.078125 -17.4375 L 13.078125 -54.890625 L 2 -54.890625 L 2 -61.96875 L 13.078125 -61.96875 L 13.078125 -75.5 L 21.4375 -75.5 L 21.4375 -61.96875 L 40.28125 -61.96875 L 40.28125 -54.890625 L 21.4375 -54.890625 L 21.4375 -17.90625 C 21.4375 -14.21875 22.359375 -11.410156 24.203125 -9.484375 C 26.046875 -7.554688 28.695312 -6.59375 32.15625 -6.59375 C 33.882812 -6.59375 35.550781 -6.867188 37.15625 -7.421875 C 38.769531 -7.972656 40.164062 -8.757812 41.34375 -9.78125 Z M 44.296875 -3.765625 "/></g></g></g><g fill="#000000" fill-opacity="1"><g transform="translate(719.99997, 515.249994)"><g><path d="M 43.234375 -62.4375 C 51.003906 -62.4375 57.1875 -60.175781 61.78125 -55.65625 C 66.375 -51.144531 68.671875 -44.566406 68.671875 -35.921875 L 68.671875 0 L 60.3125 0 L 60.3125 -35.109375 C 60.3125 -41.546875 58.703125 -46.453125 55.484375 -49.828125 C 52.265625 -53.203125 47.671875 -54.890625 41.703125 -54.890625 C 35.023438 -54.890625 29.742188 -52.90625 25.859375 -48.9375 C 21.972656 -44.976562 20.03125 -39.503906 20.03125 -32.515625 L 20.03125 0 L 11.65625 0 L 11.65625 -87.40625 L 20.03125 -87.40625 L 20.03125 -51.125 C 22.300781 -54.738281 25.4375 -57.523438 29.4375 -59.484375 C 33.445312 -61.453125 38.046875 -62.4375 43.234375 -62.4375 Z M 43.234375 -62.4375 "/></g></g></g><g fill="#000000" fill-opacity="1"><g transform="translate(848.036739, 515.249994)"><g><path d="M 33.34375 -62.4375 C 41.425781 -62.4375 47.625 -60.410156 51.9375 -56.359375 C 56.257812 -52.316406 58.421875 -46.332031 58.421875 -38.40625 L 58.421875 0 L 50.421875 0 L 50.421875 -9.65625 C 48.535156 -6.4375 45.765625 -3.921875 42.109375 -2.109375 C 38.460938 -0.304688 34.125 0.59375 29.09375 0.59375 C 22.1875 0.59375 16.691406 -1.054688 12.609375 -4.359375 C 8.523438 -7.660156 6.484375 -12.019531 6.484375 -17.4375 C 6.484375 -22.695312 8.382812 -26.9375 12.1875 -30.15625 C 16 -33.375 22.066406 -34.984375 30.390625 -34.984375 L 50.0625 -34.984375 L 50.0625 -38.75 C 50.0625 -44.09375 48.566406 -48.15625 45.578125 -50.9375 C 42.597656 -53.726562 38.242188 -55.125 32.515625 -55.125 C 28.585938 -55.125 24.816406 -54.472656 21.203125 -53.171875 C 17.585938 -51.878906 14.484375 -50.097656 11.890625 -47.828125 L 8.125 -54.0625 C 11.269531 -56.738281 15.039062 -58.800781 19.4375 -60.25 C 23.832031 -61.707031 28.46875 -62.4375 33.34375 -62.4375 Z M 30.390625 -6 C 35.097656 -6 39.140625 -7.078125 42.515625 -9.234375 C 45.898438 -11.398438 48.414062 -14.523438 50.0625 -18.609375 L 50.0625 -28.75 L 30.625 -28.75 C 20.019531 -28.75 14.71875 -25.054688 14.71875 -17.671875 C 14.71875 -14.054688 16.09375 -11.207031 18.84375 -9.125 C 21.59375 -7.039062 25.441406 -6 30.390625 -6 Z M 30.390625 -6 "/></g></g></g><g fill="#000000" fill-opacity="1"><g transform="translate(965.826192, 515.249994)"><g><path d="M 43.578125 -62.4375 C 49.390625 -62.4375 54.648438 -61.117188 59.359375 -58.484375 C 64.078125 -55.859375 67.769531 -52.148438 70.4375 -47.359375 C 73.113281 -42.566406 74.453125 -37.109375 74.453125 -30.984375 C 74.453125 -24.773438 73.113281 -19.273438 70.4375 -14.484375 C 67.769531 -9.691406 64.097656 -5.976562 59.421875 -3.34375 C 54.753906 -0.71875 49.472656 0.59375 43.578125 0.59375 C 38.554688 0.59375 34.019531 -0.445312 29.96875 -2.53125 C 25.925781 -4.613281 22.613281 -7.65625 20.03125 -11.65625 L 20.03125 22.859375 L 11.65625 22.859375 L 11.65625 -61.96875 L 19.671875 -61.96875 L 19.671875 -49.703125 C 22.179688 -53.785156 25.5 -56.925781 29.625 -59.125 C 33.75 -61.332031 38.398438 -62.4375 43.578125 -62.4375 Z M 43 -6.828125 C 47.3125 -6.828125 51.234375 -7.828125 54.765625 -9.828125 C 58.304688 -11.835938 61.078125 -14.6875 63.078125 -18.375 C 65.078125 -22.0625 66.078125 -26.265625 66.078125 -30.984375 C 66.078125 -35.691406 65.078125 -39.867188 63.078125 -43.515625 C 61.078125 -47.171875 58.304688 -50.019531 54.765625 -52.0625 C 51.234375 -54.101562 47.3125 -55.125 43 -55.125 C 38.601562 -55.125 34.65625 -54.101562 31.15625 -52.0625 C 27.664062 -50.019531 24.914062 -47.171875 22.90625 -43.515625 C 20.90625 -39.867188 19.90625 -35.691406 19.90625 -30.984375 C 19.90625 -26.265625 20.90625 -22.0625 22.90625 -18.375 C 24.914062 -14.6875 27.664062 -11.835938 31.15625 -9.828125 C 34.65625 -7.828125 38.601562 -6.828125 43 -6.828125 Z M 43 -6.828125 "/></g></g></g><g fill="#000000" fill-opacity="1"><g transform="translate(1093.98074, 515.249994)"><g><path d="M 43.578125 -62.4375 C 49.390625 -62.4375 54.648438 -61.117188 59.359375 -58.484375 C 64.078125 -55.859375 67.769531 -52.148438 70.4375 -47.359375 C 73.113281 -42.566406 74.453125 -37.109375 74.453125 -30.984375 C 74.453125 -24.773438 73.113281 -19.273438 70.4375 -14.484375 C 67.769531 -9.691406 64.097656 -5.976562 59.421875 -3.34375 C 54.753906 -0.71875 49.472656 0.59375 43.578125 0.59375 C 38.554688 0.59375 34.019531 -0.445312 29.96875 -2.53125 C 25.925781 -4.613281 22.613281 -7.65625 20.03125 -11.65625 L 20.03125 22.859375 L 11.65625 22.859375 L 11.65625 -61.96875 L 19.671875 -61.96875 L 19.671875 -49.703125 C 22.179688 -53.785156 25.5 -56.925781 29.625 -59.125 C 33.75 -61.332031 38.398438 -62.4375 43.578125 -62.4375 Z M 43 -6.828125 C 47.3125 -6.828125 51.234375 -7.828125 54.765625 -9.828125 C 58.304688 -11.835938 61.078125 -14.6875 63.078125 -18.375 C 65.078125 -22.0625 66.078125 -26.265625 66.078125 -30.984375 C 66.078125 -35.691406 65.078125 -39.867188 63.078125 -43.515625 C 61.078125 -47.171875 58.304688 -50.019531 54.765625 -52.0625 C 51.234375 -54.101562 47.3125 -55.125 43 -55.125 C 38.601562 -55.125 34.65625 -54.101562 31.15625 -52.0625 C 27.664062 -50.019531 24.914062 -47.171875 22.90625 -43.515625 C 20.90625 -39.867188 19.90625 -35.691406 19.90625 -30.984375 C 19.90625 -26.265625 20.90625 -22.0625 22.90625 -18.375 C 24.914062 -14.6875 27.664062 -11.835938 31.15625 -9.828125 C 34.65625 -7.828125 38.601562 -6.828125 43 -6.828125 Z M 43 -6.828125 "/></g></g></g><g fill="#000000" fill-opacity="1"><g transform="translate(1222.135289, 515.249994)"><g><path d="M 63.734375 -61.96875 L 32.75 7.421875 C 30.238281 13.234375 27.332031 17.351562 24.03125 19.78125 C 20.726562 22.21875 16.765625 23.4375 12.140625 23.4375 C 9.148438 23.4375 6.359375 22.960938 3.765625 22.015625 C 1.171875 21.078125 -1.0625 19.664062 -2.9375 17.78125 L 0.9375 11.546875 C 4.082031 14.679688 7.851562 16.25 12.25 16.25 C 15.070312 16.25 17.484375 15.460938 19.484375 13.890625 C 21.492188 12.328125 23.363281 9.660156 25.09375 5.890625 L 27.796875 -0.125 L 0.125 -61.96875 L 8.828125 -61.96875 L 32.15625 -9.3125 L 55.484375 -61.96875 Z M 63.734375 -61.96875 "/></g></g></g></svg>